<?xml version="1.0" encoding="UTF-8"?>
<svg version="1.1" xmlns="http://www.w3.org/2000/svg" width="512" height="512">
<path d="M0 0 C1.5098392 -0.00679667 1.5098392 -0.00679667 3.0501802 -0.01373065 C6.42711569 -0.02640316 9.8038905 -0.02475241 13.18084717 -0.02310181 C15.60045072 -0.02908531 18.02005237 -0.03589044 20.43965149 -0.04345703 C26.33286385 -0.05930565 32.22603847 -0.06556628 38.11926779 -0.06668179 C42.91122083 -0.06763273 47.70316069 -0.07174533 52.49510956 -0.07808304 C66.08835406 -0.09569453 79.68156699 -0.10492221 93.27482298 -0.10342209 C94.00741936 -0.10334218 94.74001574 -0.10326227 95.49481201 -0.10317993 C96.59505233 -0.10305729 96.59505233 -0.10305729 97.71751973 -0.10293217 C109.59988517 -0.10211959 121.48212375 -0.12125035 133.36445251 -0.14945666 C145.57218726 -0.17820614 157.7798602 -0.19199578 169.98762965 -0.19026911 C176.8385 -0.18960586 183.6892374 -0.19506957 190.54007721 -0.21662521 C196.98496708 -0.23677388 203.42964892 -0.23614216 209.87455559 -0.22159195 C212.23801775 -0.2195008 214.60149741 -0.22422286 216.96492958 -0.23631287 C220.1957804 -0.25176755 223.42566389 -0.24245475 226.65649414 -0.22705078 C228.05365123 -0.24248147 228.05365123 -0.24248147 229.47903371 -0.25822389 C235.7185922 -0.19265415 240.68083451 1.06647758 246.08221436 4.26742554 C248.23846436 6.48617554 248.23846436 6.48617554 249.58221436 8.76742554 C250.04627686 9.52023804 250.51033936 10.27305054 250.98846436 11.04867554 C253.66475257 16.47771734 253.93929317 22.54891825 252.58612061 28.41976929 C250.55433297 34.40034194 247.69766148 38.87818206 241.98210144 41.91410828 C237.64220335 43.66617733 233.56236167 43.66845641 228.934021 43.60800171 C228.04542389 43.60843979 227.15682678 43.60887787 226.24130249 43.60932922 C223.32476285 43.60725094 220.40880895 43.58396537 217.49237061 43.56039429 C215.46213597 43.55479492 213.43189726 43.55052643 211.4016571 43.54753113 C206.07346286 43.53610924 200.74551624 43.50666488 195.41741943 43.47341919 C189.97433827 43.44266101 184.53121686 43.42901352 179.08807373 43.41390991 C168.41934549 43.38179267 157.75080057 43.33062846 147.08221436 43.26742554 C147.62200928 44.20191528 148.1618042 45.13640503 148.71795654 46.09921265 C149.4384368 47.35183915 150.15880861 48.60452804 150.87908936 49.85726929 C151.23342041 50.47001709 151.58775146 51.08276489 151.95281982 51.71408081 C165.08221436 74.58488243 165.08221436 74.58488243 165.08221436 85.26742554 C166.3676841 85.25743279 166.3676841 85.25743279 167.67912292 85.24723816 C175.78488447 85.18694047 183.89056987 85.14135668 191.99650478 85.11198902 C196.16311202 85.09638286 200.32953277 85.07523781 204.49603271 85.04110718 C208.52256649 85.00833232 212.54892173 84.99053461 216.57557869 84.98279381 C218.10605743 84.97728263 219.63652723 84.96652119 221.16692924 84.95023537 C239.51864011 84.76284431 239.51864011 84.76284431 246.42205811 90.06430054 C251.30111899 96.02892264 253.6116238 101.24020534 253.32049561 109.16195679 C252.48306509 116.56154774 250.05162228 121.0071419 244.41033936 125.85726929 C239.21847347 129.00200685 233.82080539 129.51602804 227.86175537 129.49447632 C227.17798325 129.49476837 226.49421112 129.49506042 225.78971863 129.49536133 C223.5550517 129.49398057 221.32072846 129.47847947 219.08612061 129.46273804 C217.52670982 129.45900343 215.96729667 129.45615857 214.40788269 129.4541626 C210.32259534 129.44656136 206.23745237 129.4269434 202.15222168 129.40475464 C197.97591097 129.38422024 193.79957672 129.3751447 189.62322998 129.36508179 C181.44282552 129.34369387 173.26253794 129.30960078 165.08221436 129.26742554 C164.93598633 130.35603882 164.7897583 131.4446521 164.63909912 132.56625366 C160.82205417 157.93512761 142.16062116 178.54594049 123.39080811 194.56430054 C105.0089541 208.12519452 83.17609566 213.87901602 60.68377686 214.81430054 C59.66324219 214.85861206 58.64270752 214.90292358 57.59124756 214.94857788 C55.0883187 215.05695514 52.58531804 215.16317767 50.08221436 215.26742554 C50.55874608 215.74027009 51.03527781 216.21311464 51.52624989 216.70028782 C63.13029835 228.21592938 74.72319487 239.74266923 86.30386066 251.28182316 C91.90449426 256.86184742 97.50881149 262.43807509 103.12200928 268.00546265 C108.01549399 272.85902984 112.90186369 277.71963022 117.77988404 282.58874124 C120.36208417 285.16573498 122.94766564 287.73911331 125.54180336 290.30409431 C128.44039134 293.17036767 131.3229803 296.05223527 134.20452881 298.93563843 C135.06336166 299.78009018 135.92219452 300.62454193 136.80705261 301.49458313 C142.56194004 307.28969752 146.50704662 312.17953929 146.51971436 320.70492554 C146.31393519 326.96404171 144.74067781 331.43887082 140.43377686 336.02133179 C135.66938262 340.3384139 131.30560569 342.54783956 124.76971436 342.64242554 C123.88670654 342.67078491 123.00369873 342.69914429 122.09393311 342.72836304 C115.16001608 341.66714098 109.91770113 337.69831492 105.09117126 332.77758789 C104.5433401 332.23529112 103.99550893 331.69299435 103.43107682 331.13426435 C101.61534412 329.3320409 99.81412651 327.5160039 98.01263428 325.69955444 C96.70682764 324.39753443 95.40016389 323.09637354 94.0927124 321.79600525 C90.55694707 318.27416466 87.03382559 314.73992482 83.51328826 311.20286989 C79.82277592 307.49847716 76.12208366 303.80427811 72.42286682 300.10858154 C66.2148042 293.90321816 60.01486462 287.68982861 53.81976318 281.4715271 C46.66040985 274.28554838 39.48868704 267.11210085 32.31014365 259.94529593 C25.39828301 253.0442179 18.49494019 246.13468048 11.59554482 239.22114182 C8.66172403 236.28156723 5.72501181 233.34492692 2.78594017 230.41060257 C-0.67409453 226.95534365 -4.1265864 223.49271881 -7.57341766 220.02429008 C-8.83863885 218.75350977 -10.10640707 217.48525947 -11.37690544 216.21975517 C-13.11219994 214.49042737 -14.83796872 212.75211228 -16.56166077 211.01123047 C-17.06496141 210.51393987 -17.56826205 210.01664928 -18.08681422 209.50428927 C-23.07516664 204.4252658 -25.54927576 199.39195001 -25.91778564 192.26742554 C-24.83151185 184.60398715 -21.85433673 178.3558979 -15.91778564 173.26742554 C-11.87313647 171.23151456 -8.47711415 171.00714001 -3.9788208 170.98031616 C-3.29992798 170.97348312 -2.62103516 170.96665009 -1.92156982 170.95960999 C-0.45224925 170.94606294 1.01711792 170.93698341 2.48649216 170.93190002 C4.8267184 170.92355585 7.16656454 170.90299312 9.50668335 170.87936401 C14.49013637 170.83122849 19.47362873 170.79832944 24.45721436 170.76742554 C30.20380913 170.73151281 35.95022192 170.68904975 41.69664383 170.63148499 C43.97561554 170.61176008 46.25443956 170.60316301 48.53347778 170.59518433 C71.52584746 170.42958177 90.38710346 166.18738641 107.08221436 149.26742554 C111.0685062 144.84682952 114.16978748 140.33414751 116.78143311 134.98226929 C117.43438354 133.65183594 117.43438354 133.65183594 118.1005249 132.29452515 C118.42448242 131.62558228 118.74843994 130.9566394 119.08221436 130.26742554 C118.11148987 130.26384301 118.11148987 130.26384301 117.12115479 130.2601881 C101.35414783 130.20097975 85.58731654 130.12539252 69.82048035 130.03171062 C62.19566228 129.98679869 54.57089044 129.9473735 46.94598389 129.92098999 C40.29793733 129.89797253 33.65003762 129.86453287 27.00210762 129.81872398 C23.4840288 129.79484204 19.96609497 129.77608045 16.44793701 129.76981163 C12.51466992 129.76260746 8.58176523 129.73212873 4.64862061 129.69979858 C3.48983902 129.70123367 2.33105743 129.70266876 1.13716125 129.70414734 C-8.11982342 129.59663902 -15.27368243 128.06604278 -21.91778564 121.26742554 C-26.19661038 114.70656094 -25.7959327 106.85067678 -24.91778564 99.26742554 C-23.02521024 94.06479027 -19.62312264 90.1802532 -14.91778564 87.26742554 C-8.48915723 84.85785836 -2.27329831 84.96123075 4.53509521 84.94857788 C6.39468369 84.93350945 6.39468369 84.93350945 8.2918396 84.9181366 C11.67358499 84.89262756 15.05516424 84.87572222 18.43696666 84.86270857 C21.97774521 84.84702657 25.5184399 84.82025264 29.05915833 84.79467773 C35.75605294 84.74797937 42.4529635 84.71119214 49.14993721 84.67800486 C56.7775759 84.63972009 64.40513016 84.59032668 72.03269756 84.5400207 C87.71580871 84.43683394 103.39896729 84.34753066 119.08221436 84.26742554 C118.14672293 82.34354835 117.20510438 80.42264972 116.26092529 78.50302124 C115.73722351 77.43300369 115.21352173 76.36298615 114.6739502 75.26054382 C112.66054099 71.47450611 110.32210387 68.49714684 107.33221436 65.45492554 C106.81344727 64.91287476 106.29468018 64.37082397 105.76019287 63.81234741 C91.65129528 49.42934396 75.0683602 44.40963926 55.39904499 44.1428175 C52.54256527 44.11877537 49.68616961 44.10579675 46.82959938 44.0987606 C44.48669114 44.091481 42.14397894 44.07573733 39.8011322 44.05741882 C33.14851367 44.00544714 26.49601848 43.9569444 19.84320068 43.9414978 C15.75189583 43.93138351 11.66111157 43.90199387 7.57001305 43.86017799 C6.02202995 43.84793446 4.47397327 43.84273449 2.92594337 43.84497643 C-14.26213694 43.86376661 -14.26213694 43.86376661 -20.75762939 37.45101929 C-21.30096924 36.58670288 -21.30096924 36.58670288 -21.85528564 35.70492554 C-22.23555908 35.12613647 -22.61583252 34.54734741 -23.00762939 33.95101929 C-26.27068574 27.91506528 -26.12421634 18.44512267 -24.23419189 11.90023804 C-21.68198209 7.13470105 -17.54502514 3.68787306 -12.846241 1.14742088 C-8.56161534 -0.1401011 -4.45096521 -0.01465985 0 0 Z " fill="#000000" transform="translate(152.91778564453125,84.73257446289063)"/>
</svg>
